<?xml version="1.0" standalone="no"?>
<!DOCTYPE svg PUBLIC "-//W3C//DTD SVG 20010904//EN"
 "http://www.w3.org/TR/2001/REC-SVG-20010904/DTD/svg10.dtd">
<svg version="1.0" xmlns="http://www.w3.org/2000/svg"
 width="300.000000pt" height="300.000000pt" viewBox="0 0 300.000000 300.000000"
 preserveAspectRatio="xMidYMid meet">
<metadata>
Created by potrace 1.16, written by Peter Selinger 2001-2019
</metadata>
<g transform="translate(0.000000,300.000000) scale(0.100000,-0.100000)"
fill="#000000" stroke="none">
<path d="M1990 2953 c-2 -67 -140 -204 -395 -394 -6 -5 -9 11 -6 43 2 29 -2
55 -9 61 -13 14 -25 1 -180 -188 -188 -231 -194 -236 -418 -350 -73 -37 -139
-77 -146 -89 -8 -11 -32 -52 -55 -91 -23 -38 -79 -131 -124 -205 l-82 -135
-78 -41 c-107 -55 -178 -112 -232 -185 -55 -75 -65 -107 -40 -126 11 -7 30
-13 44 -13 14 0 55 -18 92 -40 38 -23 80 -40 97 -40 21 0 38 -9 56 -31 62 -73
243 -217 362 -287 112 -67 120 -56 43 55 -54 78 -147 263 -151 302 -2 19 4 26
35 37 35 12 45 11 110 -10 82 -27 172 -42 180 -29 8 13 -2 25 -56 65 -26 20
-44 38 -40 41 4 2 32 12 61 22 44 14 61 15 97 6 67 -17 165 -15 165 4 0 8 -15
21 -32 28 l-33 14 48 7 c60 9 126 -1 167 -25 45 -28 63 -79 57 -159 -6 -89
-81 -357 -127 -457 -41 -89 -64 -108 -143 -121 -59 -11 -62 -36 -5 -62 24 -11
58 -20 76 -20 37 0 37 2 5 -80 -21 -54 -35 -55 -102 -4 -43 33 -61 38 -68 18
-2 -5 26 -43 62 -84 62 -72 65 -77 65 -127 0 -58 23 -93 60 -93 11 0 62 -13
113 -30 52 -16 102 -30 111 -30 9 0 28 12 43 26 23 23 25 30 19 77 -12 91 17
183 94 297 20 30 56 88 80 129 l43 74 41 -45 c22 -25 126 -145 229 -267 104
-121 195 -221 204 -221 13 0 14 11 9 67 -10 113 -29 494 -25 497 4 4 52 -35
254 -203 33 -28 68 -50 77 -51 16 0 14 9 -12 80 -16 43 -38 96 -48 117 -11 21
-50 115 -87 208 -36 94 -75 188 -86 210 -10 22 -52 123 -93 224 l-74 183 30
17 c95 51 268 165 268 174 -1 13 -11 21 -230 170 -80 54 -151 105 -159 113
-13 11 1 30 98 128 68 69 112 120 108 128 -5 15 -25 22 -187 69 -58 16 -111
32 -117 34 -9 3 -7 17 8 52 26 61 66 228 74 313 10 94 -6 142 -67 206 -52 55
-78 67 -78 37z m70 -105 c36 -60 20 -250 -32 -382 -48 -124 -139 -234 -258
-315 l-65 -44 56 59 c108 114 179 205 179 228 0 13 6 29 14 35 7 6 19 33 26
59 6 26 16 56 21 67 28 65 65 253 52 266 -13 13 -26 -2 -60 -71 -39 -78 -148
-205 -299 -350 -106 -101 -294 -260 -308 -260 -3 0 7 24 24 53 17 28 48 86 70
127 38 75 54 91 215 219 22 18 -116 -139 -140 -159 -33 -27 -58 -100 -36 -100
6 0 34 26 63 57 29 32 124 128 210 215 130 131 163 170 192 229 20 40 36 78
36 85 0 24 20 15 40 -18z m189 -632 c-2 -2 -58 -26 -124 -54 -419 -175 -511
-214 -522 -224 -8 -6 -16 -9 -18 -6 -7 6 33 33 214 143 175 106 217 125 306
135 82 9 150 12 144 6z m-784 -356 c-6 -10 41 -16 104 -12 19 1 38 -2 41 -8 3
-5 39 -14 80 -20 41 -6 84 -15 95 -20 11 -5 146 -29 300 -53 l280 -44 -80 -7
c-121 -11 -613 -74 -670 -86 -27 -6 -168 -30 -313 -55 -144 -25 -281 -49 -305
-55 -23 -5 -48 -10 -55 -10 -19 0 176 142 462 337 66 46 70 48 61 33z m-535
-284 c0 -2 -32 -23 -70 -46 -39 -24 -107 -69 -152 -101 -54 -39 -91 -59 -110
-59 -15 0 -28 3 -28 8 0 22 45 74 83 97 34 19 186 77 275 104 1 1 2 -1 2 -3z
m730 -301 c27 -113 2 -285 -74 -510 -21 -59 -54 -231 -65 -334 -8 -74 -13 -87
-40 -114 -17 -17 -32 -29 -35 -26 -2 2 2 50 10 107 14 113 64 312 96 382 27
61 54 151 71 235 34 164 29 279 -15 340 l-21 30 30 -28 c20 -19 34 -46 43 -82z
m459 -67 c99 -47 282 -272 381 -469 l32 -62 -40 34 c-22 19 -153 137 -290 264
-237 217 -250 231 -229 242 34 19 96 15 146 -9z m-262 -198 c31 -11 71 -30 89
-42 132 -93 200 -144 253 -193 57 -53 61 -60 61 -101 0 -23 4 -65 9 -91 5 -26
12 -97 16 -157 l6 -110 -53 66 c-46 56 -160 201 -430 547 -37 47 -68 89 -68
94 0 14 60 7 117 -13z"/>
</g>
</svg>
